<svg width="600" height="600" viewBox="0 0 600 600" fill="none" xmlns="http://www.w3.org/2000/svg">
  <g id="wreath">
    <circle cx="300" cy="300" r="220" stroke="#4A9B9B" stroke-width="2" fill="none" opacity="0.8"/>
    <circle cx="300" cy="300" r="225" stroke="#4A9B9B" stroke-width="1.5" fill="none" opacity="0.6"/>
    <circle cx="300" cy="300" r="215" stroke="#4A9B9B" stroke-width="1.5" fill="none" opacity="0.6"/>
    
    <circle cx="300" cy="70" r="5" fill="#4A9B9B"/>
    <circle cx="320" cy="75" r="4" fill="#4A9B9B" opacity="0.8"/>
    <circle cx="340" cy="82" r="6" fill="#5FB3B3"/>
    <circle cx="360" cy="92" r="4" fill="#5FB3B3" opacity="0.7"/>
    <circle cx="378" cy="105" r="5" fill="#6BCBCB"/>
    <circle cx="395" cy="120" r="4" fill="#6BCBCB" opacity="0.8"/>
    
    <circle cx="410" cy="138" r="5" fill="#7B68BE" opacity="0.7"/>
    <circle cx="423" cy="158" r="4" fill="#8B5BB8"/>
    <circle cx="433" cy="180" r="6" fill="#9B4FB3"/>
    <circle cx="441" cy="203" r="5" fill="#9B4FB3" opacity="0.8"/>
    
    <path d="M 458 230 L 462 234 L 466 230 C 466 228 465 226 463 226 C 462 226 461 227 460 228 C 459 227 458 226 457 226 C 455 226 454 228 454 230 Z" fill="#9B4FB3" opacity="0.9"/>
    <path d="M 468 255 L 472 259 L 476 255 C 476 253 475 251 473 251 C 472 251 471 252 470 253 C 469 252 468 251 467 251 C 465 251 464 253 464 255 Z" fill="#A855B8" opacity="0.8"/>
    
    <path d="M 475 280 L 477 285 L 482 285 L 478 288 L 480 293 L 475 290 L 470 293 L 472 288 L 468 285 L 473 285 Z" fill="#B565C8" opacity="0.7"/>
    <path d="M 479 305 L 480 308 L 483 308 L 481 310 L 482 313 L 479 311 L 476 313 L 477 310 L 475 308 L 478 308 Z" fill="#B565C8" opacity="0.6"/>
    
    <circle cx="478" cy="330" r="4" fill="#9B4FB3" opacity="0.7"/>
    <circle cx="476" cy="350" r="5" fill="#8B5BB8"/>
    <circle cx="472" cy="370" r="4" fill="#7B68BE" opacity="0.8"/>
    <circle cx="465" cy="390" r="6" fill="#6B5FC8"/>
    
    <path d="M 448 410 L 452 414 L 456 410 C 456 408 455 406 453 406 C 452 406 451 407 450 408 C 449 407 448 406 447 406 C 445 406 444 408 444 410 Z" fill="#5BB3D8" opacity="0.8"/>
    <path d="M 430 430 L 434 434 L 438 430 C 438 428 437 426 435 426 C 434 426 433 427 432 428 C 431 427 430 426 429 426 C 427 426 426 428 426 430 Z" fill="#4A9B9B" opacity="0.9"/>
    
    <circle cx="410" cy="450" r="5" fill="#4A9B9B"/>
    <circle cx="388" cy="465" r="6" fill="#4A9B9B" opacity="0.8"/>
    <circle cx="365" cy="478" r="5" fill="#5FB3B3"/>
    <circle cx="340" cy="488" r="7" fill="#5FB3B3" opacity="0.9"/>
    <circle cx="315" cy="495" r="5" fill="#6BCBCB"/>
    
    <path d="M 288 505 L 292 509 L 296 505 C 296 503 295 501 293 501 C 292 501 291 502 290 503 C 289 502 288 501 287 501 C 285 501 284 503 284 505 Z" fill="#4A9B9B" opacity="0.9"/>
    <path d="M 260 508 L 264 512 L 268 508 C 268 506 267 504 265 504 C 264 504 263 505 262 506 C 261 505 260 504 259 504 C 257 504 256 506 256 508 Z" fill="#5FB3B3" opacity="0.8"/>
    
    <circle cx="235" cy="505" r="4" fill="#6BCBCB" opacity="0.7"/>
    <circle cx="212" cy="498" r="5" fill="#5FB3B3"/>
    <circle cx="190" cy="488" r="6" fill="#5FB3B3" opacity="0.8"/>
    <circle cx="170" cy="475" r="4" fill="#4A9B9B"/>
    <circle cx="152" cy="460" r="5" fill="#4A9B9B" opacity="0.7"/>
    
    <circle cx="137" cy="442" r="4" fill="#5FB3B3" opacity="0.6"/>
    <circle cx="125" cy="422" r="5" fill="#6BCBCB"/>
    <circle cx="117" cy="400" r="4" fill="#5FB3B3" opacity="0.8"/>
    <circle cx="112" cy="377" r="6" fill="#4A9B9B"/>
    
    <circle cx="110" cy="352" r="4" fill="#5FB3B3" opacity="0.7"/>
    <circle cx="111" cy="327" r="5" fill="#6BCBCB"/>
    <circle cx="115" cy="302" r="4" fill="#5FB3B3" opacity="0.8"/>
    <circle cx="122" cy="278" r="6" fill="#4A9B9B"/>
    <circle cx="132" cy="255" r="4" fill="#5FB3B3" opacity="0.7"/>
    
    <circle cx="145" cy="233" r="5" fill="#6BCBCB"/>
    <circle cx="160" cy="213" r="4" fill="#5FB3B3" opacity="0.8"/>
    <circle cx="177" cy="195" r="6" fill="#4A9B9B"/>
    <circle cx="196" cy="179" r="4" fill="#5FB3B3" opacity="0.7"/>
    <circle cx="217" cy="165" r="5" fill="#6BCBCB"/>
    <circle cx="240" cy="153" r="4" fill="#5FB3B3" opacity="0.8"/>
    <circle cx="263" cy="145" r="5" fill="#4A9B9B"/>
    <circle cx="285" cy="139" r="4" fill="#5FB3B3" opacity="0.7"/>
  </g>
  
  <g id="text">
    <text x="300" y="250" font-family="'Brush Script MT', 'Lucida Handwriting', cursive" font-size="32" fill="#5FB3B3" text-anchor="middle" font-style="italic">
      Events by
    </text>
    
    <text x="300" y="300" font-family="'Brush Script MT', 'Lucida Handwriting', cursive" font-size="58" fill="#4A9B9B" text-anchor="middle" font-weight="600" font-style="italic">
      Event Solutions
    </text>
    
    <text x="300" y="355" font-family="'Trebuchet MS', sans-serif" font-size="18" fill="#5FB3B3" text-anchor="middle" letter-spacing="2" font-weight="500">
      MAKING YOUR EVENT
    </text>
    
    <text x="300" y="378" font-family="'Trebuchet MS', sans-serif" font-size="18" fill="#9B4FB3" text-anchor="middle" letter-spacing="2" font-weight="500">
      A PLANNED SUCCESS
    </text>
  </g>
</svg>